<svg width="85" height="44" viewBox="0 0 85 44" fill="none" xmlns="http://www.w3.org/2000/svg">
<g clip-path="url(#clip0)">
<path d="M2.78022 31.397C2.80274 31.2577 2.9379 31.1648 3.07306 31.1648H3.34337C3.456 31.1648 3.59115 31.2577 3.61368 31.3506L6.87995 40.7325H6.97005L10.1913 31.3506C10.2138 31.2577 10.3489 31.1648 10.4616 31.1648H10.7319C10.867 31.1648 11.0022 31.2577 11.0247 31.397L13.1647 42.8226C13.2097 43.0548 13.1196 43.2406 12.8719 43.2406H12.2186C12.0834 43.2406 11.9483 43.1244 11.9258 43.0083L10.4616 34.2534H10.3715L7.33046 43.2406C7.30794 43.3335 7.15026 43.4263 7.06015 43.4263H6.76732C6.67721 43.4263 6.51953 43.3335 6.497 43.2406L3.38842 34.2302H3.32084L1.87918 42.9851C1.85665 43.1012 1.7215 43.2173 1.58634 43.2173H0.933088C0.685302 43.2173 0.595198 43.0548 0.64025 42.7993L2.78022 31.397Z" fill="black"/>
<path d="M22.8508 42.7993L27.8741 31.3506C27.9192 31.2577 28.0093 31.1648 28.1444 31.1648H28.3021C28.4598 31.1648 28.5274 31.2577 28.5724 31.3506L33.5507 42.7993C33.6408 43.0316 33.5281 43.2406 33.2803 43.2406H32.6271C32.4694 43.2406 32.3793 43.1477 32.3568 43.0548L31.1404 40.2449H25.2836L24.0672 43.0548C24.0447 43.1477 23.9321 43.2406 23.7969 43.2406H23.1437C22.8959 43.2406 22.7607 43.0083 22.8508 42.7993ZM30.7124 39.1998C29.9015 37.342 29.113 35.4842 28.3021 33.6264H28.167L25.7567 39.1998H30.7124Z" fill="black"/>
<path d="M44.1379 31.6525C44.1379 31.49 44.273 31.3274 44.4532 31.3274H50.9632C51.1435 31.3274 51.2786 31.49 51.2786 31.6525V32.1402C51.2786 32.3027 51.1435 32.4653 50.9632 32.4653H45.4219V37.1331H50.1523C50.31 37.1331 50.4677 37.2956 50.4677 37.4582V37.9458C50.4677 38.1084 50.31 38.271 50.1523 38.271H45.4219V42.9155C45.4219 43.0781 45.2642 43.2406 45.1065 43.2406H44.4532C44.273 43.2406 44.1379 43.0781 44.1379 42.9155V31.6525Z" fill="black"/>
<path d="M62.2938 31.6525C62.2938 31.49 62.4515 31.3274 62.6092 31.3274H63.2624C63.4201 31.3274 63.5778 31.49 63.5778 31.6525V42.9155C63.5778 43.0781 63.4201 43.2406 63.2624 43.2406H62.6092C62.4515 43.2406 62.2938 43.0781 62.2938 42.9155V31.6525Z" fill="black"/>
<path d="M80.8102 31.1648C82.4771 31.1648 83.6935 31.7686 84.7973 32.7439C84.9325 32.8833 84.955 33.0923 84.8198 33.2316L84.3693 33.6961C84.2342 33.8586 84.099 33.8586 83.9413 33.6728C83.0853 32.9065 81.914 32.3956 80.7877 32.3956C78.1747 32.3956 76.1924 34.6482 76.1924 37.2956C76.1924 39.9197 78.1972 42.1723 80.7877 42.1723C82.2294 42.1723 83.0628 41.5685 83.9413 40.8951C84.099 40.7557 84.2342 40.779 84.3468 40.8486L84.8424 41.3131C84.9775 41.406 84.9325 41.6614 84.8198 41.7775C83.6935 42.8922 82.2744 43.4263 80.8102 43.4263C77.4989 43.4263 74.8408 40.7093 74.8408 37.3188C74.8408 33.9283 77.4989 31.1648 80.8102 31.1648Z" fill="black"/>
<path d="M40.9843 21.8293C58.8248 21.2023 88.7619 -15.652 84.6171 24.7322C86.3966 -9.3819 59.1853 27.0544 42.0205 26.0094C38.1009 25.7772 34.6995 23.571 32.2892 18.1137C32.3118 18.1369 34.6094 22.0616 40.9843 21.8293Z" fill="#8DC640"/>
<path d="M59.4781 16.3957C61.8433 -29.6548 13.5251 38.9913 0.460022 10.2417C12.579 48.7448 58.4193 -21.7127 59.2303 16.3957H59.4781Z" fill="#8DC640"/>
</g>
<defs>
<clipPath id="clip0">
<rect width="84.54" height="43.4031" fill="white" transform="translate(0.460022)"/>
</clipPath>
</defs>
</svg>
