<svg width="147" height="73" viewBox="0 0 147 73" fill="none" xmlns="http://www.w3.org/2000/svg">
<g clip-path="url(#clip0)">
<path d="M4.03438 52.8068C4.07354 52.5725 4.30856 52.4163 4.54357 52.4163H5.01359C5.20944 52.4163 5.44445 52.5725 5.48362 52.7287L11.1631 68.5083H11.3197L16.9209 52.7287C16.96 52.5725 17.195 52.4163 17.3909 52.4163H17.8609C18.0959 52.4163 18.3309 52.5725 18.3701 52.8068L22.0911 72.0235C22.1695 72.4141 22.0128 72.7266 21.5819 72.7266H20.446C20.211 72.7266 19.976 72.5313 19.9369 72.336L17.3909 57.611H17.2342L11.9464 72.7266C11.9073 72.8828 11.6331 73.0391 11.4764 73.0391H10.9672C10.8106 73.0391 10.5364 72.8828 10.4972 72.7266L5.09193 57.572H4.97442L2.46763 72.2969C2.42846 72.4922 2.19345 72.6875 1.95844 72.6875H0.822545C0.391689 72.6875 0.235015 72.4141 0.313352 71.9845L4.03438 52.8068Z" fill="black"/>
<path d="M38.9337 71.9845L47.6683 52.7287C47.7467 52.5725 47.9033 52.4163 48.1383 52.4163H48.4125C48.6867 52.4163 48.8042 52.5725 48.8825 52.7287L57.5388 71.9845C57.6955 72.3751 57.4997 72.7266 57.0688 72.7266H55.9329C55.6587 72.7266 55.5021 72.5704 55.4629 72.4141L53.3478 67.6881H43.1639L41.0488 72.4141C41.0096 72.5704 40.8138 72.7266 40.5788 72.7266H39.4429C39.012 72.7266 38.777 72.336 38.9337 71.9845ZM52.6036 65.9304C51.1935 62.8058 49.8226 59.6811 48.4125 56.5564H48.1775L43.9865 65.9304H52.6036Z" fill="black"/>
<path d="M75.948 53.2365C75.948 52.9631 76.183 52.6897 76.4964 52.6897H87.8161C88.1294 52.6897 88.3645 52.9631 88.3645 53.2365V54.0567C88.3645 54.3301 88.1294 54.6035 87.8161 54.6035H78.1806V62.4542H86.406C86.6802 62.4542 86.9544 62.7276 86.9544 63.0011V63.8213C86.9544 64.0947 86.6802 64.3681 86.406 64.3681H78.1806V72.1798C78.1806 72.4532 77.9064 72.7266 77.6323 72.7266H76.4964C76.183 72.7266 75.948 72.4532 75.948 72.1798V53.2365Z" fill="black"/>
<path d="M107.518 53.2365C107.518 52.9631 107.792 52.6897 108.066 52.6897H109.202C109.476 52.6897 109.751 52.9631 109.751 53.2365V72.1798C109.751 72.4532 109.476 72.7266 109.202 72.7266H108.066C107.792 72.7266 107.518 72.4532 107.518 72.1798V53.2365Z" fill="black"/>
<path d="M139.715 52.4163C142.613 52.4163 144.728 53.4318 146.647 55.0722C146.883 55.3066 146.922 55.6581 146.687 55.8925L145.903 56.6736C145.668 56.947 145.433 56.947 145.159 56.6346C143.671 55.3456 141.634 54.4864 139.675 54.4864C135.132 54.4864 131.685 58.275 131.685 62.7277C131.685 67.1413 135.171 70.9299 139.675 70.9299C142.182 70.9299 143.632 69.9144 145.159 68.7817C145.433 68.5473 145.668 68.5864 145.864 68.7036L146.726 69.4847C146.961 69.641 146.883 70.0706 146.687 70.2659C144.728 72.1407 142.261 73.0391 139.715 73.0391C133.957 73.0391 129.335 68.4692 129.335 62.7667C129.335 57.0642 133.957 52.4163 139.715 52.4163Z" fill="black"/>
<path d="M70.4644 36.7148C101.486 35.6602 153.541 -26.3253 146.334 41.5971C149.428 -15.7796 102.113 45.5029 72.2662 43.7453C65.4508 43.3547 59.5364 39.6442 55.3453 30.4655C55.3845 30.5045 59.3797 37.1054 70.4644 36.7148Z" fill="#8BC540"/>
<path d="M102.622 27.5758C106.735 -49.8769 22.7178 65.5796 0 17.2253C21.0727 81.984 100.781 -36.5189 102.191 27.5758H102.622Z" fill="#8BC540"/>
</g>
<defs>
<clipPath id="clip0">
<rect width="147" height="73" fill="white"/>
</clipPath>
</defs>
</svg>
